<svg id="visual" viewBox="0 0 960 300" width="960" height="300" xmlns="http://www.w3.org/2000/svg" xmlns:xlink="http://www.w3.org/1999/xlink" version="1.1"><rect x="0" y="0" width="960" height="300" fill="#0f0f10"></rect><path d="M0 102L20 115.3C40 128.7 80 155.3 120 154.7C160 154 200 126 240 112C280 98 320 98 360 96.5C400 95 440 92 480 95.7C520 99.3 560 109.7 600 113.2C640 116.7 680 113.3 720 111.8C760 110.3 800 110.7 840 121.8C880 133 920 155 940 166L960 177L960 301L940 301C920 301 880 301 840 301C800 301 760 301 720 301C680 301 640 301 600 301C560 301 520 301 480 301C440 301 400 301 360 301C320 301 280 301 240 301C200 301 160 301 120 301C80 301 40 301 20 301L0 301Z" fill="#8c8c8c"></path><path d="M0 187L20 181.3C40 175.7 80 164.3 120 168.5C160 172.7 200 192.3 240 200.2C280 208 320 204 360 194C400 184 440 168 480 165.8C520 163.7 560 175.3 600 175.7C640 176 680 165 720 166C760 167 800 180 840 184.3C880 188.7 920 184.3 940 182.2L960 180L960 301L940 301C920 301 880 301 840 301C800 301 760 301 720 301C680 301 640 301 600 301C560 301 520 301 480 301C440 301 400 301 360 301C320 301 280 301 240 301C200 301 160 301 120 301C80 301 40 301 20 301L0 301Z" fill="#cab161"></path><path d="M0 209L20 209.3C40 209.7 80 210.3 120 210.7C160 211 200 211 240 218.5C280 226 320 241 360 245.2C400 249.3 440 242.7 480 241C520 239.3 560 242.7 600 240C640 237.3 680 228.7 720 221.3C760 214 800 208 840 213.2C880 218.3 920 234.7 940 242.8L960 251L960 301L940 301C920 301 880 301 840 301C800 301 760 301 720 301C680 301 640 301 600 301C560 301 520 301 480 301C440 301 400 301 360 301C320 301 280 301 240 301C200 301 160 301 120 301C80 301 40 301 20 301L0 301Z" fill="#ffd900"></path></svg>