<svg id="visual" viewBox="0 0 900 600" width="900" height="600" xmlns="http://www.w3.org/2000/svg" xmlns:xlink="http://www.w3.org/1999/xlink" version="1.1"><rect x="0" y="0" width="900" height="600" fill="#0f0f10"></rect><path d="M0 424L18.8 435.8C37.7 447.7 75.3 471.3 112.8 470.7C150.3 470 187.7 445 225.2 432.7C262.7 420.3 300.3 420.7 337.8 419.3C375.3 418 412.7 415 450.2 418.2C487.7 421.3 525.3 430.7 562.8 433.8C600.3 437 637.7 434 675.2 432.7C712.7 431.3 750.3 431.7 787.8 441.5C825.3 451.3 862.7 470.7 881.3 480.3L900 490L900 601L881.3 601C862.7 601 825.3 601 787.8 601C750.3 601 712.7 601 675.2 601C637.7 601 600.3 601 562.8 601C525.3 601 487.7 601 450.2 601C412.7 601 375.3 601 337.8 601C300.3 601 262.7 601 225.2 601C187.7 601 150.3 601 112.8 601C75.3 601 37.7 601 18.8 601L0 601Z" fill="#8c8c8c"></path><path d="M0 499L18.8 494C37.7 489 75.3 479 112.8 482.7C150.3 486.3 187.7 503.7 225.2 510.7C262.7 517.7 300.3 514.3 337.8 505.5C375.3 496.7 412.7 482.3 450.2 480.3C487.7 478.3 525.3 488.7 562.8 489.2C600.3 489.7 637.7 480.3 675.2 481.3C712.7 482.3 750.3 493.7 787.8 497.3C825.3 501 862.7 497 881.3 495L900 493L900 601L881.3 601C862.7 601 825.3 601 787.8 601C750.3 601 712.7 601 675.2 601C637.7 601 600.3 601 562.8 601C525.3 601 487.7 601 450.2 601C412.7 601 375.3 601 337.8 601C300.3 601 262.7 601 225.2 601C187.7 601 150.3 601 112.8 601C75.3 601 37.7 601 18.8 601L0 601Z" fill="#cab161"></path><path d="M0 519L18.8 519.3C37.7 519.7 75.3 520.3 112.8 520.7C150.3 521 187.7 521 225.2 527.7C262.7 534.3 300.3 547.7 337.8 551.3C375.3 555 412.7 549 450.2 547.5C487.7 546 525.3 549 562.8 546.5C600.3 544 637.7 536 675.2 529.5C712.7 523 750.3 518 787.8 522.8C825.3 527.7 862.7 542.3 881.3 549.7L900 557L900 601L881.3 601C862.7 601 825.3 601 787.8 601C750.3 601 712.7 601 675.2 601C637.7 601 600.3 601 562.8 601C525.3 601 487.7 601 450.2 601C412.7 601 375.3 601 337.8 601C300.3 601 262.7 601 225.2 601C187.7 601 150.3 601 112.8 601C75.3 601 37.7 601 18.8 601L0 601Z" fill="#ffd900"></path></svg>